<svg xmlns="http://www.w3.org/2000/svg" xmlns:xlink="http://www.w3.org/1999/xlink" width="80" height="36" viewBox="0 0 80 36">
    <defs>
        <path id="a" d="M74.499 20.574v-6.837c-.415-1.077-1.742-2.652-4.231-2.652-2.987 0-4.521 2.61-4.521 5.304 0 2.694 1.617 5.263 4.77 5.263 2.406 0 3.982-1.078 3.982-1.078zm5.185-12.887v18.44c0 6.175-4.314 9.282-9.54 9.282-3.153 0-5.974-1.45-6.886-2.154-.29-.249-.415-.746-.208-1.078l1.245-2.693c.166-.373.705-.498 1.12-.249.705.414 2.572 1.45 4.563 1.45 2.945 0 4.521-.994 4.521-4.558v-.539c-.871.332-2.696.788-4.604.788-5.725 0-9.5-4.393-9.5-9.987 0-5.801 3.941-10.028 9.168-10.028 4.065 0 6.263 2.86 6.263 2.86l.498-1.534c.166-.539.456-.912.913-.912h1.534a.92.92 0 0 1 .913.912zm-30.608-.504c6.18.004 8.424 4.583 8.422 9.628l-.005 9.157a.937.937 0 0 1-.937.934l-3.933-.002a.937.937 0 0 1-.936-.935l.006-9.53c.001-2.523-1.122-4.112-3.556-4.113-2.81-.002-4.028 2.053-4.028 2.053s.093 1.028.093 1.869l-.005 9.717c0 .467-.469.934-.937.934l-3.558-.002a.937.937 0 0 1-.936-.935l.005-9.437c.001-2.523-1.121-4.112-3.556-4.113-2.434-.001-3.559 1.68-4.028 2.988l-.005 10.558c0 .467-.469.934-.937.934l-3.933-.003c-.468 0-.936-.467-.936-.934l.005-8.876c.002-2.803-2.15-5.327-4.866-5.329-.562 0-.936-.374-.936-.934l.002-3.364c0-.467.375-.934.937-.934 3.37.002 6.46 1.685 8.331 4.302l.75-.84c.843-.84 3.09-2.801 6.462-2.8 2.809.002 4.68 1.124 6.272 2.994.75-.84 3.278-2.988 6.743-2.987zM16.393 20.91c.672-.191.96.096.863.67l-.002 3.732c0 .383-.192.765-.672.957a9.676 9.676 0 0 1-2.973.476c-5.178-.002-9.108-3.45-9.105-9.957l.003-4.88-3.549-.002A.96.96 0 0 1 0 10.948l.002-3.35c0-.574.384-.956.96-.956l3.548.002.002-5.455c0-.478.48-.956.96-.956L9.5.235c.48 0 .863.48.862.958L10.36 6.55l5.083.003c.576 0 .959.383.959.958l-.002 3.349a.96.96 0 0 1-.96.956l-5.082-.002-.003 4.976c-.002 2.87 1.34 4.498 3.546 4.5.863 0 1.918-.191 2.493-.382z"/>
        <filter id="b" width="103.8%" height="108.5%" x="-1.9%" y="-4.3%" filterUnits="objectBoundingBox">
            <feGaussianBlur in="SourceAlpha" result="shadowBlurInner1" stdDeviation="1"/>
            <feOffset dy="1" in="shadowBlurInner1" result="shadowOffsetInner1"/>
            <feComposite in="shadowOffsetInner1" in2="SourceAlpha" k2="-1" k3="1" operator="arithmetic" result="shadowInnerInner1"/>
            <feColorMatrix in="shadowInnerInner1" values="0 0 0 0 0 0 0 0 0 0 0 0 0 0 0 0 0 0 0.3 0"/>
        </filter>
    </defs>
    <g fill="none" fill-rule="evenodd">
        <use fill="#222" xlink:href="#a"/>
        <use fill="#000" filter="url(#b)" xlink:href="#a"/>
    </g>
</svg>
