<svg xmlns="http://www.w3.org/2000/svg" width="40" height="40" viewBox="0 0 40 40">
    <g fill="none" fill-rule="evenodd">
        <path fill="#0071A1" d="M36.994 0H2.947C1.32 0 0 1.291 0 2.884v34.23C0 38.707 1.321 40 2.947 40h34.047c1.629 0 2.955-1.293 2.955-2.886V2.884C39.95 1.291 38.623 0 36.994 0"/>
        <path fill="#FFFFFE" d="M8.887 5.507a3.439 3.439 0 0 1 3.434 3.44 3.437 3.437 0 0 1-6.872 0 3.437 3.437 0 0 1 3.438-3.44zM5.919 34.084h5.931V14.996H5.92v19.088zM15.568 14.996h5.68v2.61h.08c.79-1.501 2.724-3.084 5.607-3.084 6 0 7.108 3.952 7.108 9.093v10.47h-5.925V24.8c0-2.213-.038-5.06-3.079-5.06-3.083 0-3.553 2.412-3.553 4.902v9.441h-5.918V14.996"/>
    </g>
</svg>
