<svg xmlns="http://www.w3.org/2000/svg" width="53" height="24" viewBox="0 0 53 24">
    <path fill="#707070" fill-rule="evenodd" d="M49.354 13.716V9.158C49.08 8.44 48.2 7.39 46.551 7.39c-1.978 0-2.995 1.74-2.995 3.536s1.072 3.509 3.16 3.509c1.594 0 2.638-.719 2.638-.719zm3.435-8.591v12.293c0 4.116-2.858 6.188-6.32 6.188-2.089 0-3.957-.967-4.562-1.436-.192-.166-.275-.497-.137-.718l.824-1.796c.11-.249.467-.332.742-.166.467.276 1.704.967 3.023.967 1.951 0 2.995-.663 2.995-3.039v-.359c-.577.221-1.786.525-3.05.525-3.792 0-6.293-2.928-6.293-6.658 0-3.868 2.61-6.685 6.073-6.685 2.693 0 4.15 1.906 4.15 1.906l.33-1.022c.11-.36.302-.608.604-.608h1.017c.33 0 .604.276.604.608zm-20.277-.336c4.094.002 5.581 3.055 5.58 6.419l-.004 6.104a.623.623 0 0 1-.62.622l-2.606-.001a.623.623 0 0 1-.62-.623l.003-6.354c.001-1.681-.742-2.74-2.355-2.742-1.861 0-2.668 1.37-2.668 1.37s.061.685.061 1.245l-.003 6.478c0 .312-.31.623-.621.623l-2.357-.002a.623.623 0 0 1-.62-.623l.003-6.29c.001-1.683-.743-2.742-2.356-2.743-1.612 0-2.357 1.12-2.668 1.992l-.004 7.039c0 .311-.31.622-.62.622l-2.606-.001c-.31 0-.62-.312-.62-.624l.004-5.917c0-1.869-1.425-3.551-3.224-3.552-.372 0-.62-.25-.62-.623l.001-2.243c0-.311.249-.622.62-.622 2.234 0 4.28 1.123 5.52 2.868l.497-.56c.558-.56 2.048-1.868 4.28-1.867 1.862.001 3.102.75 4.156 1.996.496-.56 2.172-1.992 4.467-1.991zm-21.652 9.15c.445-.127.636.064.572.447l-.001 2.488c0 .255-.128.51-.445.638a6.374 6.374 0 0 1-1.97.318c-3.43-.002-6.034-2.3-6.032-6.638l.002-3.254-2.351-.001A.638.638 0 0 1 0 7.299l.001-2.233c0-.383.255-.638.636-.638l2.35.001L2.99.793c0-.319.318-.638.636-.638l2.668.002c.318 0 .572.32.572.638l-.002 3.573 3.367.001c.381 0 .635.256.635.639l-.001 2.233a.638.638 0 0 1-.636.637l-3.367-.002-.002 3.318c0 1.914.888 2.999 2.35 3 .571 0 1.27-.127 1.651-.255z"/>
</svg>
